<svg width="578" height="444" viewBox="0 0 578 444" fill="none" xmlns="http://www.w3.org/2000/svg">
<g clip-path="url(#clip0_1_194)">
<path d="M486.712 442.681C484.969 442.026 481.563 439.363 479.142 436.764C476.306 433.718 473.906 432.038 472.391 432.038C468.803 432.038 459.888 422.081 457.773 415.71C456.829 412.866 454.719 409.29 453.086 407.763C450.391 405.245 450.257 404.829 451.631 403.263C454.439 400.064 454.66 397.238 452.356 394.002C451.167 392.333 450.455 390.29 450.772 389.463C451.125 388.544 449.733 386.205 447.192 383.448C443.743 379.707 443.003 378.183 442.85 374.512C442.749 372.077 442.146 369.459 441.51 368.693C440.709 367.728 440.546 364.266 440.978 357.419C441.447 350 441.174 345.421 439.883 339.038C437.966 329.56 436.986 311.9 437.484 295.788C437.591 292.351 437.127 287.563 436.454 285.149C434.853 279.41 427.86 272.588 418.576 267.71C412.162 264.339 411.251 263.465 408.733 258.267C407.207 255.116 404.291 250.407 402.252 247.803C400.214 245.198 397.998 241.373 397.327 239.303C395.2 232.731 391.449 226.129 388.892 224.453C387.532 223.562 385.984 221.258 385.453 219.334C384.618 216.31 384.839 215.305 387.084 211.911L389.682 207.987L387.341 205.495L385 203.003L387.292 198.285C388.553 195.69 391.743 190.854 394.381 187.539C400.44 179.924 401.912 174.913 400.33 167.29L399.165 161.677L404.273 156.955C407.083 154.358 409.382 151.718 409.382 151.088C409.382 149.196 414.516 145.038 416.853 145.038C418.052 145.038 420.09 143.913 421.382 142.538C423.618 140.158 426.394 139.184 426.371 140.788C426.365 141.201 425.708 143.687 424.911 146.312C423.306 151.604 423.79 154.304 426.257 153.813C427.398 153.586 427.882 152.41 427.882 149.864C427.882 147.132 428.537 145.72 430.539 144.138C433.909 141.476 434.594 141.505 438.105 144.459C441.429 147.256 452.256 150.359 455.687 149.498C460.579 148.27 473.798 156.307 478.765 163.53C481.13 166.969 488.686 170.43 492.008 169.596C498.982 167.845 507.829 174.519 510.741 183.726C513.035 190.981 512.888 191.73 508.382 195.775C503.877 199.82 503.045 202.621 506.627 201.684C507.947 201.339 510.635 201.951 513.149 203.168C517.812 205.425 516.889 205.658 524.199 200.379C526.388 198.797 526.76 198.824 530.949 200.859C535.106 202.879 535.831 203.816 535.473 206.713C535.243 208.577 537.159 209.228 539.379 208.039C540.854 207.25 543.645 207.253 549.455 208.048C556.811 209.055 557.822 209.478 561.379 213.036C563.679 215.336 567.026 217.426 569.574 218.153C574.99 219.7 577 221.383 577.718 224.973C578.581 229.283 576.631 234.781 572.297 240.265C570.143 242.989 568.382 245.585 568.382 246.033C568.382 246.482 566.764 248.785 564.787 251.151C561.299 255.326 561.212 255.631 561.827 261.496C562.987 272.552 558.085 291.544 552.576 297.337C550.295 299.735 549.39 300.047 546.251 299.516C543.936 299.125 542.324 299.322 541.874 300.05C541.482 300.685 539.298 302.023 537.021 303.024C534.744 304.025 531.355 306.148 529.488 307.742C526.258 310.501 526.15 310.807 527.237 314.101C528.49 317.898 527.646 322.394 524.96 326.229C524.092 327.469 523.382 329.578 523.382 330.916C523.382 332.255 522.344 334.742 521.076 336.444C519.808 338.146 517.501 341.788 515.948 344.538C512.857 350.012 509.797 352.982 507.214 353.016C506.298 353.028 503.468 352.147 500.926 351.057C496.934 349.346 496.226 349.28 495.729 350.574C495.387 351.466 496.16 352.863 497.641 354.028C501.365 356.957 503.735 362.51 502.359 365.08C500.629 368.314 495.316 371.03 490.715 371.035C486.299 371.038 485.032 372.333 486.552 375.288C488.505 379.086 484.182 382.462 480.415 380.08C479.489 379.494 478.484 379.539 477.686 380.2C476.15 381.475 477.529 384.675 480.699 387.194C482.447 388.582 482.574 389.102 481.488 390.41C480.775 391.269 480.398 392.549 480.649 393.255C480.899 393.961 479.992 396.463 478.632 398.816L476.16 403.093L479.878 406.6C484.242 410.716 484.472 412.73 481.372 419.676L479.08 424.814L481.317 428.433C483.547 432.042 495.487 440.601 500.382 442.101C502.613 442.784 502.493 442.876 499.257 442.952C497.263 443 494.338 443.226 492.757 443.455C491.175 443.684 488.455 443.336 486.712 442.681ZM513.582 199.838C511.766 198.022 512.138 196.25 514.493 195.503C517.057 194.689 519.925 197.18 519.05 199.461C518.334 201.326 515.28 201.537 513.582 199.838Z" fill="#22C55E"/>
<path d="M202.878 315.256C195.148 311.498 187.946 305.371 187.946 302.551C187.946 301.31 187.245 299.712 186.389 299.001C185.532 298.29 184.207 296.216 183.445 294.393C182.229 291.481 181.713 291.146 179.217 291.645C175.208 292.447 165.843 288.117 163.024 284.159C161.795 282.432 159.446 280.325 157.804 279.476C155.095 278.075 154.418 278.086 150.472 279.593L146.124 281.253L132.785 274.789C124.58 270.813 118.212 267.021 116.24 264.935C113.174 261.692 113.081 261.358 114.111 257.3C115.082 253.474 114.917 252.52 112.441 247.626C110.93 244.64 108.176 240.726 106.32 238.927C104.465 237.129 102.946 234.801 102.946 233.754C102.946 232.707 101.407 229.308 99.5261 226.2C97.645 223.092 95.8039 218.628 95.4349 216.28C94.7984 212.23 92.824 209.049 90.9463 209.049C90.4749 209.049 89.3495 209.789 88.4454 210.693C86.471 212.668 86.9282 215.115 90.8583 223.607C92.4002 226.939 93.9943 231.884 94.4008 234.594C94.8073 237.305 95.8045 240.808 96.6169 242.379C98.8182 246.636 97.2021 247.028 93.882 243.043C91.7067 240.432 91.1105 238.874 91.5217 236.876C91.9641 234.725 91.4822 233.766 89.0577 231.974C85.4029 229.271 84.627 227.515 85.9757 224.995C86.7636 223.522 86.3995 221.904 84.3863 217.931C82.4867 214.182 81.9375 211.91 82.3718 209.595C83.2455 204.938 81.2965 200.453 77.3988 198.154C73.8236 196.044 73.5388 195.369 71.8732 185.049C70.1895 174.618 70.6185 170.105 73.6005 166.88C74.7853 165.598 76.4783 162.794 77.3627 160.648C78.2472 158.502 80.7398 154.827 82.9018 152.482C85.0639 150.136 88.2148 145.479 89.904 142.133C93.1004 135.801 94.3997 134.92 96.4344 137.702C97.9054 139.714 99.4677 138.876 101.472 134.999C102.787 132.456 102.801 131.638 101.578 128.711C100.805 126.861 98.8106 124.377 97.146 123.192C94.3142 121.175 94.135 120.667 94.362 115.293C94.4954 112.134 95.0924 108.64 95.6886 107.527C96.8051 105.445 97.1552 96.9699 96.2593 93.7081C95.9812 92.6954 94.1381 91.1918 92.1635 90.3667C90.189 89.5417 87.1523 87.7828 85.4155 86.458C83.6786 85.1333 81.475 84.0494 80.5186 84.0494C79.5621 84.0494 75.2145 83.1391 70.8573 82.0266C63.852 80.238 62.6173 80.1674 60.1907 81.4163C55.1617 84.0045 49.8337 85.0595 47.6616 83.897C46.0324 83.025 44.2543 83.5635 38.0543 86.8066C33.8699 88.9954 28.8713 91.1259 26.9463 91.541C25.0213 91.9561 21.3373 93.3585 18.7597 94.6573C12.6434 97.7392 0.763516 102.2 0.192556 101.629C-0.542464 100.894 0.970385 99.0494 2.30825 99.0494C2.99239 99.0494 7.24083 97.2655 11.7492 95.0853C20.1315 91.0318 22.6298 88.2627 16.8645 89.4157C15.1694 89.7547 12.832 89.5234 11.6701 88.9015C9.5859 87.7861 9.59701 87.7396 12.502 85.4233C14.6429 83.7162 15.4463 82.2146 15.4463 79.9204C15.4463 75.4386 18.8609 73.3127 28.2786 71.9309C34.0605 71.0826 36.8905 70.1258 39.089 68.2759C42.4372 65.4586 41.6682 63.0575 38.0397 64.9994C35.8369 66.1783 29.3371 65.4906 28.4034 63.9799C28.117 63.5164 29.094 62.3435 30.5745 61.3734C32.5095 60.1056 35.3211 59.6002 40.5742 59.5759C49.1794 59.5362 52.0848 57.8452 49.809 54.201C47.97 51.2564 49.4606 50.1182 56.5519 49.0522C59.7938 48.5648 64.7127 47.2781 67.4827 46.1929C70.2527 45.1077 77.7846 43.4917 84.2203 42.6017C94.6608 41.1579 96.8656 41.1401 104.684 42.4364C109.503 43.2355 116.146 44.1886 119.446 44.5544C122.746 44.9201 128.587 46.0812 132.426 47.1344C141.342 49.5805 147.15 49.5507 157.11 47.0075C161.509 45.8845 165.954 45.2344 166.989 45.5629C168.024 45.8914 169.784 45.6716 170.9 45.0744C172.44 44.2499 173.636 44.3545 175.869 45.5093C177.896 46.5578 180.202 46.839 183.294 46.4151C189.304 45.5914 202.585 49.5613 203.329 52.4038C203.782 54.1387 204.482 54.2778 210.14 53.7584C216.093 53.212 216.572 53.3302 218.679 55.8645L220.912 58.5494L222.679 56.3206C223.651 55.0948 226.584 53.4513 229.196 52.6685C233.322 51.4322 234.571 51.4363 238.696 52.6997C241.579 53.5826 245.098 53.9159 247.649 53.5477C250.738 53.1018 252.552 53.3999 254.494 54.6724C257.025 56.331 257.311 56.3163 261.291 54.3242C263.577 53.1804 266.684 51.7603 268.196 51.1684C270.984 50.0774 271.971 46.8008 269.898 45.5193C268.329 44.5499 270.261 42.662 275.017 40.5177C278.424 38.9811 279.239 38.9054 279.953 40.0593C280.434 40.8386 280.403 42.1969 279.88 43.173C278.233 46.2512 279.993 48.5892 283.621 48.1413C285.432 47.9178 286.148 49.8038 285.039 51.8755C284.355 53.154 284.387 54.0896 285.139 54.842C286.523 56.2262 292.372 53.3946 295.871 49.6467C297.481 47.9213 299.344 47.0494 301.421 47.0494C306.431 47.0494 307.247 48.7678 304.131 52.7537C300.442 57.4729 297.015 59.0494 290.446 59.0494C287.367 59.0494 283.551 59.7195 281.967 60.5385C280.194 61.4554 277.908 61.7917 276.017 61.4135C272.883 60.7866 272.065 61.7678 274.059 63.7622C274.671 64.3743 274.909 65.3 274.588 65.8194C273.804 67.088 262.412 69.4549 261.073 68.6274C260.489 68.2668 259.435 68.9467 258.729 70.1384C258.024 71.33 255.141 73.3415 252.323 74.6085C244.335 78.2003 235.958 83.9287 234.72 86.6472C233.194 89.9953 236.605 96.1937 240.627 97.3834C242.177 97.8421 246.146 99.5226 249.446 101.118C252.746 102.713 256.72 104.308 258.277 104.662C261.983 105.506 262.507 107.191 260.568 112.036C259.32 115.156 259.218 116.551 260.096 118.479C262.704 124.202 268.437 121.893 271.48 113.895C273.301 109.109 274.125 108.223 279.351 105.432C287.09 101.298 290.265 97.2644 289.402 92.6628C288.842 89.6813 289.111 88.9875 291.409 87.4821C292.868 86.5261 294.941 84.0192 296.017 81.9112C298.87 76.3178 301.894 74.6644 307.681 75.5323C313.167 76.355 316.669 77.9799 319.357 80.951C320.91 82.6667 321.063 83.499 320.179 85.4371C319.341 87.2765 319.432 88.2974 320.577 89.9331C322.651 92.8933 324.947 92.5869 330.946 88.5494C336.562 84.77 337.86 84.3619 338.103 86.2994C338.774 91.6728 338.975 93.8778 338.991 96.0494C339.001 97.4244 339.745 100.252 340.645 102.333C341.891 105.215 342.002 106.393 341.113 107.283C338.912 109.483 339.951 110.171 344.455 109.496C347.473 109.043 349.458 109.229 350.455 110.057C354.131 113.107 350.903 117.363 341.917 121.313C334.5 124.574 330.118 125.391 319.446 125.502C311.169 125.588 309.784 125.907 302.196 129.483C297.659 131.622 293.946 133.974 293.946 134.711C293.946 136.575 294.974 136.409 301.097 133.559C306.645 130.976 312.946 130.23 312.946 132.155C312.946 132.763 311.823 134.596 310.45 136.227C308.497 138.548 308.172 139.603 308.958 141.071C310.541 144.03 314.099 146.049 317.728 146.049C322.253 146.049 320.96 147.671 315.032 149.431C312.376 150.22 308.817 151.582 307.124 152.457C305.431 153.333 303.348 154.049 302.496 154.049C299.669 154.049 300.89 152.119 305.065 149.989C310.859 147.033 308.889 145.183 302.26 147.354C291.382 150.917 282.087 155.876 280.487 158.971C278.708 162.411 276.82 163.601 269.865 165.666C266.91 166.544 264.322 168.072 263.395 169.488C262.544 170.785 260.506 172.404 258.864 173.084C257.222 173.764 255.088 175.272 254.122 176.435C253.156 177.598 251.484 179.049 250.406 179.659C248.916 180.503 248.435 181.875 248.399 185.393C248.344 190.695 245.266 194.733 239.053 197.652C232.57 200.698 223.343 207.897 221.474 211.368C219.826 214.428 219.755 215.632 220.762 223.433C221.597 229.906 221.591 232.736 220.735 234.613C218.188 240.205 213.518 234.285 213.473 225.406C213.441 219.283 210.896 215.594 207.32 216.492C206.103 216.797 202.969 216.131 200.355 215.01C194.786 212.623 190.806 213.438 187.443 217.656L185.414 220.201L180.93 218.464C174.2 215.858 170.234 216.23 163.946 220.058C160.921 221.9 157.413 224.025 156.151 224.781C153.574 226.324 153.371 226.76 148.987 240.198L145.839 249.847L147.453 256.076C150.456 267.663 154.47 270.913 163.47 269.044C169.017 267.893 174.946 263.635 174.946 260.803C174.946 258.47 178.2 256.192 182.521 255.501C189.257 254.424 189.442 256.017 183.974 268.049C180.649 275.366 179.501 278.925 180.188 279.788C180.853 280.625 183.722 280.95 189.016 280.788C199.808 280.459 200.277 281.001 198.546 291.799C196.677 303.457 198.052 308.501 203.928 311.54C206.22 312.725 207.186 312.724 210.53 311.533C216.003 309.582 217.442 309.711 220.608 312.435C222.997 314.489 223.196 315.044 222.041 316.435C220.173 318.685 219.029 318.449 219.683 315.947C220.291 313.623 218.6 312.08 215.446 312.08C212.701 312.08 210.865 313.396 210.542 315.595C210.145 318.303 209.047 318.255 202.878 315.256ZM240.696 163.06C246.208 159.7 244.134 157.258 237.946 159.823C234.283 161.342 232.739 162.905 233.571 164.252C234.412 165.612 237.304 165.129 240.696 163.06ZM219.21 162.799C220.115 162.112 221.731 159.48 222.8 156.951C224.849 152.108 228.669 148.408 232.655 147.408C235.843 146.608 236.553 147.547 234.982 150.483C232.117 155.836 237.553 158.226 241.949 153.546C243.243 152.169 244.784 151.098 245.374 151.165C248.108 151.475 248.946 150.867 248.946 148.572C248.946 145.11 244.868 142.486 241.93 144.058C240.182 144.993 239.415 144.879 237.831 143.445C236.76 142.475 235.983 140.977 236.106 140.116C236.88 134.689 231.985 131.284 226.091 133.149C216.728 136.112 214.069 137.256 212.486 139.006C210.871 140.79 210.891 140.949 212.854 142C214.464 142.862 215.631 142.747 218.068 141.487C220.981 139.98 221.482 139.987 225.023 141.584C227.122 142.53 229.538 143.036 230.393 142.708C231.247 142.38 231.946 142.442 231.946 142.846C231.946 143.25 229.689 144.382 226.929 145.362C221.903 147.147 221.097 148.014 215.472 157.688C212.615 162.6 215.064 165.948 219.21 162.799ZM258.505 155.617C259.98 154.528 260.168 153.901 259.288 153.009C257.759 151.456 250.946 153.594 250.946 155.627C250.946 157.506 255.954 157.499 258.505 155.617ZM287.5 307.137C286.46 305.453 287.931 303.634 289.259 304.962C290.042 305.745 290.042 306.354 289.259 307.137C288.476 307.919 287.984 307.919 287.5 307.137ZM223.613 270.383C222.248 269.018 223.016 267.92 225.118 268.23C227.866 268.634 228.79 271.049 226.196 271.049C225.142 271.049 223.98 270.749 223.613 270.383ZM268.64 270.41C267.707 269.477 268.835 268.049 270.505 268.049C271.298 268.049 271.946 268.724 271.946 269.549C271.946 271.056 269.835 271.605 268.64 270.41ZM247.196 269.387C246.509 269.11 245.946 267.548 245.946 265.916V262.949L251.91 263.347C257.471 263.718 260.946 265.171 260.946 267.125C260.946 268.965 250.436 270.694 247.196 269.387ZM229.699 261.321C227.446 261.085 225.576 260.226 225.009 259.167C223.643 256.615 216.815 252.128 212.472 250.929C209.77 250.183 207.942 250.223 205.889 251.073C201.584 252.856 199.911 251.65 203.853 249.604C208.741 247.067 217.967 247.809 224.466 251.26C227.205 252.715 231.915 255.104 234.932 256.569C240.075 259.066 240.297 259.32 238.49 260.641C237.431 261.415 235.863 261.974 235.005 261.881C234.148 261.789 231.76 261.537 229.699 261.321ZM225.946 238.049C225.946 237.499 226.396 237.049 226.946 237.049C227.496 237.049 227.946 237.499 227.946 238.049C227.946 238.599 227.496 239.049 226.946 239.049C226.396 239.049 225.946 238.599 225.946 238.049ZM336.696 137.333C335.184 137.104 333.946 136.546 333.946 136.093C333.946 135.64 336.534 132.636 339.696 129.417C345.133 123.883 345.462 123.701 345.74 126.072C345.941 127.786 347.208 129.209 349.74 130.567C354.153 132.932 354.733 136.101 350.946 137.155C348.233 137.909 341.09 137.999 336.696 137.333ZM91.9369 130.041C89.2751 127.554 88.9308 126.773 89.9536 125.541C91.619 123.534 92.2134 123.641 95.3003 126.502C98.1183 129.113 98.8708 133.049 96.5521 133.049C95.7853 133.049 93.7084 131.695 91.9369 130.041ZM89.9463 103.633C89.9463 102.762 90.6588 102.049 91.5297 102.049C92.4005 102.049 92.9349 102.584 92.7172 103.237C92.0991 105.091 89.9463 105.399 89.9463 103.633ZM398.446 80.276C392.118 76.8251 389.093 71.5231 390.927 67.0964C391.795 65.0014 391.821 63.684 391.025 62.1972C389.37 59.1031 391.53 55.477 397.055 52.0774C403.063 48.3809 404.463 45.9711 403.016 41.8205C402.424 40.1226 401.034 38.0987 399.927 37.3229C398.819 36.5472 398.162 35.5087 398.467 35.0152C399.272 33.7126 395.58 26.9589 392.48 24.0656C390.034 21.782 389.026 21.5759 379.968 21.5082C369.486 21.4297 366.771 20.4372 367.666 17.0126C367.949 15.9328 368.251 15.0494 368.339 15.0494C368.427 15.0494 372.312 14.5803 376.973 14.007C382.923 13.2751 388.259 11.7655 394.891 8.93696C405.161 4.55764 405.943 4.47208 430.446 5.04802C438.184 5.22988 445.302 4.65725 454.446 3.11729C462.962 1.6832 469.228 1.14259 472.612 1.55005C475.486 1.89627 479.649 1.66795 481.999 1.03514C487.453 -0.433357 501.622 1.33308 507.195 4.17623C510.49 5.85706 512.233 6.07901 517.792 5.52553C523.797 4.92768 524.251 5.00632 522.446 6.33198C521.346 7.13988 517.971 8.12766 514.946 8.52705C508.672 9.3554 503.946 12.908 503.946 16.796C503.946 19.9213 497.403 27.7283 492.788 30.1091C490.776 31.1471 487.289 32.2908 485.038 32.6507C482.788 33.0105 480.946 33.6637 480.946 34.1022C480.946 34.5407 482.826 35.9457 485.123 37.2244C489.822 39.8401 490.837 41.4937 488.333 42.4544C487.295 42.8527 485.217 42.1232 482.987 40.5776C480.981 39.1871 479.058 38.0494 478.716 38.0494C477.764 38.0494 475.08 43.8502 475.731 44.5011C476.046 44.8157 477.746 44.8023 479.51 44.4714C483.37 43.7474 485.09 45.6398 481.753 46.9378C476.683 48.9095 464.265 51.0644 461.344 50.4795C458.023 49.8145 452.227 52.2213 446.32 56.7182C444.373 58.2004 440.26 59.6598 435.418 60.5861C425.321 62.5179 421.91 64.752 415.826 73.4147C410.94 80.3727 407.993 82.966 404.946 82.9906C404.121 82.9972 401.196 81.7757 398.446 80.276ZM327.542 73.5878C325.394 72.2683 322.779 69.8336 321.73 68.1774C319.971 65.3991 319.946 64.9799 321.399 62.7618C323.634 59.3504 327.511 57.7458 330.13 59.1476C331.655 59.9636 332.867 59.9508 334.737 59.0988L337.275 57.9425L334.215 55.1472C332.531 53.6098 330.443 50.9773 329.574 49.2972C328.706 47.6171 326.431 45.276 324.52 44.0948C321.263 42.0822 320.855 42.0453 318.024 43.5089C315.564 44.7811 314.125 44.8737 310.262 44.0081C307.654 43.4237 303.802 43.2359 301.701 43.5909C297.4 44.3174 292.632 42.0309 293.536 39.6753C294.28 37.7364 301.931 32.4725 305.135 31.6947C308.273 30.9329 309.582 32.2772 307.435 34.0585C305.975 35.2707 305.36 38.0494 306.552 38.0494C306.885 38.0494 308.428 36.9805 309.98 35.6741C311.533 34.3676 314.436 32.9924 316.432 32.6179C319.466 32.0488 320.818 32.4385 324.675 34.9932C329.79 38.3808 330.249 38.4932 332.986 37.0283C334.539 36.1971 335.377 36.5505 337.497 38.9289C339.052 40.675 341.88 42.2987 344.523 42.9644C346.956 43.5769 348.983 44.4092 349.028 44.8138C349.072 45.2183 349.202 46.8526 349.317 48.4456C349.438 50.1312 350.464 52.0122 351.771 52.9456C353.006 53.8276 355.013 55.3105 356.232 56.2407L358.446 57.9321L355.833 60.581L353.22 63.2298L348.955 61.0537C345.104 59.0889 344.539 59.028 343.141 60.4266C341.86 61.7074 341.801 62.4344 342.8 64.6273C345.091 69.656 342.463 72.4667 337.802 69.9724C336.696 69.38 335.083 69.1668 334.218 69.4985C332.867 70.0172 332.949 70.4232 334.806 72.3996C338.786 76.6369 333.825 77.4484 327.542 73.5878ZM279.347 68.8892C278.929 68.2116 279.801 66.7109 281.427 65.3125C283.503 63.5269 284.903 63.0691 286.837 63.544C293.018 65.062 296.429 69.9296 290.845 69.2631C289.526 69.1056 287.771 68.9061 286.946 68.8197C286.121 68.7333 284.236 68.9763 282.758 69.3596C281.083 69.7939 279.797 69.6165 279.347 68.8892ZM307.603 66.3732C306.493 65.2624 309.094 63.0494 311.51 63.0494C313.855 63.0494 315.623 64.549 314.213 65.342C312.508 66.3005 308.202 66.9722 307.603 66.3732ZM215.946 50.1195C211.793 49.289 207.946 47.3414 207.946 46.069C207.946 45.5684 210.084 45.0218 212.696 44.8541C217.827 44.5249 219.182 42.7491 214.696 42.2329C213.146 42.0545 211.946 41.3014 211.946 40.506C211.946 39.7302 210.867 38.388 209.547 37.5234C207.314 36.0604 206.714 36.1277 200.891 38.4936C196.171 40.4117 194.305 40.7619 193.291 39.9201C192.551 39.3065 191.946 38.4411 191.946 37.997C191.946 36.8089 205.923 29.3689 209.613 28.5931C213.328 27.8117 220.373 29.5067 223.937 32.0393C227.747 34.747 233.036 35.9347 235.797 34.7027C237.688 33.859 238.331 33.9856 239.096 35.352C240.355 37.6025 242.232 37.4964 244.446 35.0494C247.94 31.1893 250.399 33.4659 247.861 38.2094C246.978 39.8592 247.194 40.6846 249.021 42.629L251.267 45.0199L246.529 47.1157C242.369 48.9558 241.215 49.0734 237.071 48.0793C232.95 47.0906 231.744 47.2072 227.566 48.9982C222.533 51.1556 221.585 51.247 215.946 50.1195ZM257.353 49.8977C256.504 48.5247 259.582 46.0494 262.137 46.0494C264.813 46.0494 264.332 48.5527 261.399 49.8888C258.267 51.3159 258.229 51.316 257.353 49.8977ZM264.731 37.4056C263.206 35.8806 263.353 35.6216 266.767 33.8204C271.889 31.1176 275.81 30.0203 276.479 31.1024C277.519 32.7849 274.896 36.0436 271.288 37.551C266.831 39.4135 266.737 39.4114 264.731 37.4056ZM281.354 34.9004C280.962 34.2654 281.426 33.1718 282.386 32.47C284.533 30.9 291.48 29.6428 292.958 30.5567C294.812 31.7021 291.989 34.0494 288.758 34.0494C287.139 34.0494 284.972 34.5006 283.941 35.0521C282.632 35.7529 281.853 35.7073 281.354 34.9004ZM323.446 28.5421C322.896 28.3499 317.609 27.8922 311.696 27.5248C300.152 26.8075 298.441 25.7371 303.52 22.409C305.959 20.8114 306.314 20.8285 310.27 22.734C313.781 24.4252 315.839 24.6701 323.196 24.272C330.43 23.8806 331.946 24.0525 331.946 25.2634C331.946 27.5491 326.556 29.6284 323.446 28.5421ZM334.946 21.5494C333.571 20.7633 331.368 20.1043 330.05 20.0848L327.654 20.0494L330.265 17.6294C331.702 16.2984 333.68 15.0525 334.661 14.8608C335.801 14.6381 336.446 13.6155 336.446 12.0307V9.54936L345.704 9.91539C352.042 10.166 355.429 9.8937 356.443 9.05209C358.688 7.18862 357.315 6.1152 353.482 6.73723C349.589 7.36909 344.609 6.40459 345.374 5.16677C345.92 4.28296 353.438 3.50604 375.06 2.09885C382.547 1.61156 390.872 0.939977 393.56 0.606437L398.446 0L390.38 3.8748C382.816 7.50769 370.517 11.0494 365.464 11.0494C364.234 11.0494 360.698 12.3994 357.606 14.0494C354.514 15.6994 351.364 17.0494 350.606 17.0494C349.848 17.0494 346.577 18.3937 343.337 20.0367C340.097 21.6797 337.446 23.0138 337.446 23.0013C337.446 22.9887 336.321 22.3354 334.946 21.5494ZM320.946 20.0494C319.833 19.3298 320.428 19.076 323.255 19.0647C325.543 19.0555 326.818 19.4487 326.446 20.0494C325.665 21.3132 322.902 21.3132 320.946 20.0494ZM315.946 12.3912C315.121 12.116 313.771 11.6694 312.946 11.3987C310.828 10.7037 314.195 8.32866 319.215 6.97712C326.346 5.05689 329.564 8.05213 323.859 11.2994C320.782 13.0504 318.76 13.3295 315.946 12.3912Z" fill="#84CC16"/>
</g>
<defs>
<clipPath id="clip0_1_194">
<rect width="578" height="444" fill="white"/>
</clipPath>
</defs>
</svg>
