<svg width="505" height="374" viewBox="0 0 505 374" fill="none" xmlns="http://www.w3.org/2000/svg">
<g clip-path="url(#clip0_1_100)">
<path d="M369.721 372.711C366.146 372.215 361.106 371.115 358.52 370.267C355.934 369.419 352.917 369.011 351.814 369.361C349.209 370.188 341.67 367.92 340.971 366.1C340.674 365.323 341.058 364.268 341.826 363.754C343.622 362.552 350.571 363.566 353.45 365.45C355.239 366.621 356.608 366.7 360.391 365.852C364.556 364.919 365.424 365.034 367.872 366.843C369.394 367.969 371.131 368.89 371.73 368.89C373.832 368.89 378.781 371.985 378.195 372.933C377.869 373.459 377.292 373.828 376.912 373.751C376.532 373.674 373.296 373.206 369.721 372.711ZM329.112 355.14C326.607 352.528 323.428 347.923 322.049 344.907C320.669 341.891 317.556 336.784 315.131 333.558C312.706 330.332 310.721 327.275 310.721 326.766C310.721 326.256 308.021 322.937 304.721 319.39C298.83 313.057 298.093 311.852 299.348 310.596C301.025 308.92 313.142 316.489 314.22 319.886C314.538 320.887 318.155 324.232 322.259 327.321C326.772 330.718 329.721 333.66 329.721 334.766C329.721 335.771 330.959 337.998 332.471 339.714C341.506 349.963 342.988 353.308 340.308 357.397C337.74 361.317 334.386 360.641 329.112 355.14ZM377.4 350.236C377.04 349.876 373.767 349.446 370.126 349.28C359.961 348.818 358.623 347.341 355.191 332.784C354.403 329.439 356.725 326.977 360.066 327.616C361.936 327.973 362.688 327.57 363.208 325.931C363.584 324.746 365.435 323.04 367.321 322.141C369.207 321.242 371.619 319.034 372.681 317.235C373.742 315.435 376.144 313.323 378.017 312.54C379.891 311.757 382.421 309.716 383.641 308.003C386.372 304.168 387.605 304.116 391.034 307.695C394.248 311.05 394.354 312.27 391.721 315.617C389.188 318.838 389.213 320.153 391.91 325.554L394.099 329.937L391.91 331.47C390.706 332.314 389.721 333.613 389.721 334.357C389.721 335.993 384.452 347.304 382.716 349.397C381.438 350.936 378.555 351.391 377.4 350.236ZM326.667 324.35C322.647 321.384 319.957 316.573 318.025 308.89C316.934 304.552 315.71 302.545 312.231 299.39L307.821 295.39L308.809 286.89C309.701 279.225 309.606 278.047 307.849 274.89C306.778 272.965 305.164 268.84 304.264 265.724C302.066 258.113 300.911 257.299 296.709 260.399C293.569 262.716 293.243 262.767 291.526 261.213C290.458 260.247 289.927 258.816 290.254 257.787C291.127 255.036 285.338 244.646 281.861 242.722C280.203 241.805 277.937 239.273 276.826 237.096C274.742 233.01 272.389 231.36 270.4 232.589C269.773 232.976 266.551 234 263.24 234.862C257.877 236.26 257.187 236.73 256.903 239.182C256.71 240.848 255.526 242.609 253.903 243.645C252.428 244.586 248.869 247.839 245.993 250.873C243.118 253.908 240.193 256.988 239.493 257.718C238.794 258.449 236.487 260.478 234.368 262.227C230.554 265.375 230.526 265.451 231.63 269.552C232.4 272.413 232.433 274.519 231.734 276.358C231.177 277.822 230.721 280.714 230.721 282.784C230.721 286.665 226.023 295.177 223.305 296.22C221.157 297.044 217.942 294.173 217.193 290.761C216.815 289.041 214.805 283.979 212.726 279.512C200.139 252.464 198.047 246.714 199.166 242.256C199.977 239.021 198.812 234.89 197.088 234.89C196.309 234.89 195.244 236.015 194.721 237.39C193.61 240.313 190.337 240.71 186.944 238.333C184.686 236.752 183.898 233.89 185.721 233.89C186.271 233.89 186.721 233.215 186.721 232.39C186.721 231.565 185.902 230.89 184.902 230.89C183.901 230.89 180.482 228.432 177.305 225.427C170.981 219.447 168.719 218.302 166.009 219.705C163.966 220.763 142.195 220.489 138.601 219.36C137.292 218.949 134.871 217.067 133.221 215.179C130.24 211.766 130.194 211.753 125.721 212.958C121.483 214.101 120.868 213.993 115.159 211.111C110.227 208.621 108.749 207.278 107.227 203.902C105.016 198.999 100.446 196.043 98.0948 197.995C94.6321 200.869 94.7326 202.39 98.779 208.352C100.947 211.546 102.721 214.913 102.721 215.834C102.721 216.755 103.369 218.381 104.16 219.449C105.4 221.121 105.891 221.212 107.701 220.106C110.162 218.603 111.721 219.27 111.721 221.827C111.721 227.463 119.168 226.831 125.456 220.66C129.16 217.025 129.721 216.754 129.721 218.6C129.721 222.143 130.813 223.886 134.092 225.582C138.512 227.866 144.721 233.008 144.721 234.383C144.721 235.02 143.552 236.633 142.124 237.966C140.695 239.299 138.639 242.121 137.555 244.235C134.92 249.374 127.284 256.89 124.698 256.89C121.709 256.89 117.263 259.414 115.494 262.115C114.655 263.395 112.451 265.2 110.595 266.126C101.09 270.871 89.6466 275.682 86.4261 276.286C82.9828 276.932 82.704 276.775 80.8797 273.178C79.8233 271.095 78.6248 266.915 78.2164 263.89C77.6852 259.956 76.655 257.455 74.5975 255.105C73.0156 253.299 71.7213 251.387 71.7213 250.857C71.7213 250.326 69.9167 248.033 67.7111 245.76C64.9642 242.93 63.1892 239.858 62.0765 236.009C61.1831 232.919 59.3584 229.04 58.0216 227.39C49.9032 217.369 45.6075 211.269 45.0641 208.989C44.7234 207.56 44.0017 205.529 43.4604 204.477C42.5105 202.63 42.4169 202.642 40.7812 204.811L39.0863 207.058L36.3391 203.456C32.9557 199.02 33.0301 194.559 36.4959 194.067C37.7469 193.89 39.3758 192.765 40.1157 191.567C41.661 189.066 43.6485 179.482 43.9889 172.89C44.2164 168.484 44.1589 168.392 41.2212 168.501C39.5712 168.562 36.7604 169.222 34.975 169.969C32.1272 171.159 31.3718 171.115 28.8207 169.608C25.5408 167.67 22.6091 167.402 21.1087 168.903C18.1524 171.859 8.72125 165.57 8.72125 160.642C8.72125 159.49 8.00217 157.753 7.12329 156.782C5.08358 154.528 6.26196 152.558 9.20762 153.297C10.8012 153.697 12.6004 152.973 15.2574 150.861C17.6985 148.921 19.6969 148.065 20.8953 148.445C21.9626 148.784 24.2594 148.103 26.2994 146.842C29.2564 145.014 30.6935 144.761 34.9293 145.323C37.7244 145.694 41.6336 146.81 43.6163 147.802C51.6845 151.84 58.8792 151.519 61.08 147.022C63.1383 142.816 62.0467 141.21 54.1782 136.866C50.1031 134.617 46.521 132.375 46.2178 131.885C45.2653 130.343 47.8293 122.132 50.3153 118.763C52.6512 115.597 52.6629 115.475 50.9182 112.488C49.8682 110.69 47.9264 109.131 46.1802 108.683C44.5528 108.265 41.3194 107.452 38.9949 106.875C36.6023 106.281 32.7551 104.083 30.1282 101.81C26.5152 98.6827 24.8066 97.8595 22.4108 98.0918C19.5086 98.3732 19.3256 98.1847 19.1931 94.7763C19.1159 92.7887 18.078 89.5855 16.8868 87.658C15.1093 84.782 13.9605 84.0515 10.4813 83.5848C5.38679 82.9015 3.24627 80.5749 2.3068 74.6998C1.71362 70.9903 1.92506 70.1436 3.8297 68.6013C5.46048 67.2808 5.74761 66.5165 4.92283 65.6918C4.09806 64.867 4.58134 63.592 6.76275 60.8378C9.69569 57.1347 10.6223 53.8902 8.74693 53.8902C7.34346 53.8902 4.72125 48.4243 4.72125 45.4989C4.72125 44.129 4.27125 42.7301 3.72125 42.3902C3.17125 42.0503 2.72125 40.3716 2.72125 38.6599C2.72125 36.9482 1.99167 34.7415 1.09997 33.7562C-0.958232 31.4819 -0.0783315 29.1447 3.32294 27.8515C5.43374 27.049 6.66737 27.2509 9.35961 28.8393C11.5302 30.12 13.7253 30.6415 15.4823 30.294C18.651 29.6672 34.4465 34.3146 36.7212 36.543C38.0528 37.8474 38.0033 38.174 36.2801 39.4513C34.044 41.1089 27.4639 41.358 24.7191 39.889C21.9494 38.4067 13.5166 38.1661 13.0242 39.5553C12.797 40.1962 13.5409 41.0156 14.6772 41.3762C15.8135 41.7369 17.4225 43.3456 18.2528 44.9512C20.2726 48.857 27.0138 52.3392 29.7355 50.8826C30.8276 50.2981 31.7212 49.4419 31.7212 48.98C31.7212 48.5181 32.9587 47.8898 34.4712 47.5839C36.0333 47.2679 37.6532 46.0372 38.2212 44.735C38.8909 43.1999 40.5427 42.1384 43.2212 41.5221C47.8647 40.4537 48.5904 39.6567 47.9536 36.3255C47.3286 33.0557 49.6878 33.1164 52.5816 36.4446C55.0783 39.316 56.564 39.1614 63.2212 35.337C68.3349 32.3994 74.2634 31.2653 76.182 32.8576C77.9485 34.3237 91.535 32.5443 96.2213 30.2331C98.9398 28.8924 100.019 28.9532 107.721 30.8816C112.396 32.0521 117.234 33.2603 118.471 33.5665C122.118 34.469 121.443 30.432 117.687 28.8762C113.276 27.0491 110.489 23.1924 111.804 20.7354C113.091 18.33 117.419 16.5976 120.321 17.3259C121.519 17.6266 125.231 21.5343 128.57 26.0097C134.6 34.0936 134.63 34.1664 133.095 37.1334C131.034 41.1208 132.495 42.5754 136.489 40.5102C141.97 37.6759 141.574 31.4165 135.721 28.3902C130.379 25.6275 129.284 20.0616 134.332 21.3286C136.849 21.9604 141.975 19.6694 147.008 15.6636C148.898 14.1584 151.309 13.3982 154.508 13.2982C160.932 13.0975 160.721 13.1955 160.721 10.4092C160.721 8.6452 161.371 7.78968 162.971 7.4486C173.023 5.30566 177.565 4.7897 181.365 5.35943C185.285 5.94728 186.195 5.68268 189.639 2.95508C194.024 -0.517813 197.385 -0.882293 202.021 1.6123C204.383 2.88335 207.709 3.34697 214.721 3.38238C228.476 3.45183 232.588 6.58871 224.721 11.0103C218.079 14.7432 219.706 16.5103 227.802 14.3576C232.536 13.0987 233.863 13.1018 238.302 14.3821C241.983 15.444 244.305 15.5832 246.73 14.8877C249.158 14.1914 251.687 14.3447 255.936 15.4458C260.384 16.5983 262.689 16.7156 265.508 15.9326C271.941 14.146 279.856 14.6506 284.447 17.1402C286.729 18.3777 290.938 20.6674 293.8 22.2285C298.873 24.9956 299.094 25.0262 302.612 23.4488C305.545 22.1342 307.207 22.0193 311.478 22.8359C317.034 23.8982 321.721 22.7616 321.721 20.3521C321.721 17.2313 324.591 16.5414 332.514 17.757C336.753 18.4073 341.796 19.0655 343.721 19.2197C345.646 19.3738 349.407 20.4839 352.079 21.6865C356.154 23.5205 359.228 23.936 371.15 24.2635C382.462 24.5742 386.063 25.0268 388.792 26.4812C391.562 27.9575 394.719 28.333 405.221 28.4354C414.736 28.5281 419.227 28.9946 421.971 30.1751C424.034 31.0623 425.79 31.4736 425.874 31.0892C425.957 30.7047 426.08 29.7152 426.147 28.8902C426.241 27.7202 427.472 27.446 431.744 27.6439C440.11 28.0315 456.685 30.9278 461.721 32.8822C464.196 33.8427 468.913 34.9578 472.204 35.3603C475.494 35.7629 480.296 37.161 482.873 38.4673C486.786 40.4499 488.057 40.669 490.57 39.7931C494.006 38.5954 496.235 39.4579 501.481 44.0152L504.742 46.847L502.28 47.4649C500.909 47.8089 497.468 47.2932 494.519 46.3018C491.605 45.3223 488.546 44.4226 487.721 44.3026C486.896 44.1826 484.695 43.6037 482.829 43.0163C479.15 41.8578 477.721 42.2391 477.721 44.3797C477.721 45.1339 476.709 45.8949 475.471 46.0706C471.495 46.6353 473.276 48.3129 481.326 51.5855C489.844 55.0486 491.723 56.8902 486.739 56.8902C482.711 56.8902 479.889 58.3873 476.576 62.2809C474.084 65.2101 473.744 65.3201 470.7 64.1796C468.11 63.2088 466.95 63.2345 464.845 64.3091C463.402 65.0462 460.728 65.9709 458.904 66.364C457.079 66.7571 455.332 67.7417 455.021 68.5519C454.05 71.0827 456.867 74.7821 461.457 77.0042C464.222 78.3426 466.219 80.1172 466.814 81.7642C467.336 83.2085 468.249 85.3464 468.844 86.5152C469.612 88.0247 469.616 89.2176 468.859 90.6337C468.272 91.7301 467.943 92.7989 468.128 93.0087C468.313 93.2185 468.776 95.531 469.156 98.1476C470.439 106.991 467.373 105.399 450.751 88.5872C443.915 81.6733 443.118 79.8551 444.64 74.6505C448.236 62.355 448.177 62.7925 446.633 60.0335C445.254 57.5685 440.815 55.7429 440.645 57.5706C440.145 62.9203 439.28 63.6516 435.849 61.6248C434.303 60.7117 431.177 59.6669 428.902 59.3032C425.067 58.6898 424.692 58.8373 423.744 61.3311C423.181 62.8102 422.721 65.3325 422.721 66.9362C422.721 70.7016 419.644 71.5914 414.318 69.366C411.826 68.325 409.504 68.0101 407.829 68.4862C406.395 68.894 401.545 69.2643 397.052 69.3089C387.039 69.4085 384.931 70.9472 382.172 80.1676C381.148 83.59 380.159 86.8761 379.975 87.47C379.537 88.8811 386.894 92.178 390.45 92.1648C391.974 92.1591 394.128 91.8452 395.236 91.4671C397.95 90.5416 406.226 96.9982 408.804 102.052C409.862 104.126 411.611 106.296 412.691 106.874C416.775 109.06 417.605 123.402 414.189 132.779C411.883 139.111 409.155 141.386 405.523 140.005C402.614 138.899 401.773 139.379 399.586 143.39C398.474 145.431 398.22 147.098 398.791 148.604C399.456 150.359 399.105 151.23 397.094 152.812C395.699 153.909 394.708 155.48 394.89 156.305C395.072 157.129 397.684 159.518 400.693 161.614C405.656 165.071 410.721 170.848 410.721 173.053C410.721 174.138 404.677 177.881 402.916 177.886C402.198 177.889 400.542 175.472 399.235 172.517C396.743 166.883 392.741 162.89 389.586 162.89C388.561 162.89 387.665 162.44 387.596 161.89C387.528 161.34 387.359 160.44 387.221 159.89C387.084 159.34 386.915 158.452 386.846 157.916C386.778 157.38 385.337 156.226 383.645 155.351C380.851 153.906 380.35 153.903 378.18 155.325C374.552 157.702 372.871 157.249 371.937 153.642C370.747 149.049 368.115 148.93 364.123 153.288C362.308 155.269 360.319 156.89 359.703 156.89C359.086 156.89 358.726 157.896 358.902 159.125C359.358 162.314 367.303 166.632 369.821 165.06C371.68 163.899 377.363 164.501 378.261 165.954C378.535 166.397 377.219 167.934 375.337 169.37C370.423 173.118 369.798 176.617 373.523 179.532C375.133 180.793 377.009 183.171 377.692 184.819C378.374 186.466 380.496 189.006 382.407 190.464C385.195 192.591 385.763 193.589 385.278 195.518C384.794 197.449 385.172 198.111 387.198 198.881C388.586 199.409 389.721 200.223 389.721 200.691C389.721 201.159 388.459 206.037 386.917 211.531C383.343 224.263 379.945 228.811 371.784 231.787C368.612 232.944 364.802 233.89 363.319 233.89C360.07 233.89 355.902 235.928 353.324 238.777L351.431 240.869L349.033 238.282C347.155 236.255 346.049 235.834 343.928 236.338C340.118 237.242 336.459 240.084 334.835 243.4C333.609 245.904 333.663 246.626 335.303 249.671C336.322 251.564 339.119 254.721 341.518 256.687C346.538 260.8 351.206 269.27 352.235 276.132C352.879 280.427 352.706 281.006 350.078 283.356C348.507 284.761 345.268 287.73 342.88 289.954C338.009 294.49 336.221 294.584 336.221 290.303C336.221 287.952 335.739 287.326 333.721 287.056C332.346 286.873 329.387 284.848 327.146 282.556C317.801 273.004 311.931 270.863 313.168 277.459C313.508 279.269 313.26 282.838 312.617 285.39C311.562 289.582 311.651 290.304 313.541 292.86C314.691 294.416 315.917 296.821 316.264 298.203C316.615 299.603 319.492 302.8 322.754 305.417C327.757 309.429 328.915 311.007 330.668 316.198C334.27 326.864 333.154 329.136 326.667 324.35ZM109.65 169.427C111.206 168.623 112.758 167.237 113.099 166.348C114.02 163.947 112.724 159.759 110.069 156.563C107.103 152.992 107.125 152.257 110.221 151.48C111.596 151.134 112.721 150.395 112.721 149.836C112.721 147.796 109.444 143.89 107.732 143.89C105.153 143.89 96.8558 139.01 95.671 136.796C94.9711 135.489 94.9849 134.266 95.7149 132.902C96.8341 130.811 100.916 129.274 102.595 130.312C104.178 131.29 104.911 129.114 103.738 126.921C102.136 123.928 97.0817 121.652 93.6908 122.397C90.4899 123.1 81.2662 130.028 80.3491 132.418C80.0164 133.284 80.619 134.678 81.7421 135.64C82.8306 136.572 83.7213 137.895 83.7213 138.579C83.7213 139.263 85.6835 142.033 88.0818 144.733C92.9378 150.201 94.3195 153.904 92.6604 157.004C90.5408 160.964 92.3197 163.656 99.4891 167.336C103.192 169.237 106.356 170.814 106.521 170.841C106.686 170.868 108.094 170.232 109.65 169.427ZM419.05 308.083C418.443 307.702 417.231 305.673 416.357 303.573C415.088 300.525 414.31 299.82 412.494 300.073C411 300.282 410.221 299.877 410.221 298.89C410.221 297.827 411.13 297.459 413.34 297.626C415.503 297.79 417.282 297.1 419.142 295.376C422.544 292.224 423.236 292.257 424.533 295.64C426.966 301.988 427.002 303.004 424.811 303.577C423.662 303.878 422.721 304.691 422.721 305.384C422.721 307.172 420.362 308.906 419.05 308.083ZM234.949 306.031C233.103 304.89 232.8 294.39 234.613 294.39C236.439 294.39 239.618 298.761 239.955 301.735C240.258 304.408 236.936 307.259 234.949 306.031ZM388.721 294.118C388.721 293.693 390.13 291.637 391.852 289.548C395.986 284.533 398.155 286.144 394.218 291.306C391.749 294.542 388.721 296.091 388.721 294.118ZM409.231 291.906C408.494 290.713 409.43 288.89 410.78 288.89C411.997 288.89 412.005 291.597 410.79 292.347C410.278 292.664 409.577 292.465 409.231 291.906ZM405.876 284.338C406.066 283.358 406.827 282.354 407.567 282.108C408.427 281.821 408.788 282.302 408.567 283.442C408.377 284.422 407.616 285.426 406.876 285.672C406.015 285.959 405.655 285.478 405.876 284.338ZM417.921 282.69C416.299 281.068 416.41 279.89 418.186 279.89C418.992 279.89 420.133 280.79 420.721 281.89C421.543 283.426 421.482 283.89 420.456 283.89C419.722 283.89 418.581 283.35 417.921 282.69ZM399.993 269.913C395.059 264.663 394.209 262.715 395.666 259.994C396.246 258.909 396.721 256.69 396.721 255.063C396.721 249.709 400.466 250.52 403.58 256.55C404.435 258.207 404.351 259.533 403.215 262.252C401.813 265.605 401.858 265.938 404.052 268.489C405.513 270.186 407.448 271.222 409.283 271.287C411.037 271.349 412.312 271.996 412.488 272.913C412.713 274.084 411.796 274.436 408.512 274.436C404.743 274.436 403.746 273.906 399.993 269.913ZM347.027 249.246C346.308 247.372 349.092 244.89 351.912 244.89C353.96 244.89 354.196 246.134 352.686 248.956C351.422 251.318 347.892 251.499 347.027 249.246ZM391.179 230.466C389.728 228.252 389.728 227.777 391.182 224.966C394.213 219.105 397.552 222.09 395.692 228.997C394.48 233.502 393.399 233.854 391.179 230.466ZM419.971 188.275C417.401 184.25 417.163 182.89 419.03 182.89C421.472 182.89 423.777 185.394 424 188.288C424.315 192.388 422.594 192.383 419.971 188.275ZM427.894 183.231C428.316 181.043 431.221 180.733 431.221 182.876C431.221 183.694 430.393 184.522 429.38 184.717C428.044 184.975 427.637 184.567 427.894 183.231ZM435.627 179.277C434.295 177.671 429.012 177.757 422.971 179.481C419.846 180.373 420.091 178.353 423.471 175.359C425.425 173.63 426.971 173.077 428.812 173.452C430.775 173.851 432.705 173 436.783 169.936C444.605 164.059 445.373 162.11 442.277 156.001C440.242 151.984 440.028 150.88 441.112 149.981C443.811 147.741 451.518 156.651 450.093 160.365C449.755 161.245 450.236 163.95 451.163 166.376C452.474 169.809 452.598 171.252 451.723 172.886C450.483 175.204 446.889 176.89 443.191 176.89C441.815 176.89 440.335 177.743 439.721 178.89C438.425 181.312 437.397 181.409 435.627 179.277ZM31.7212 176.08C31.7212 175.554 32.6469 174.881 33.7784 174.586C35.0869 174.243 35.6936 174.474 35.4455 175.219C34.9666 176.657 31.7212 177.408 31.7212 176.08ZM435.155 142.483C434.823 141.16 435.008 139.223 435.566 138.179C436.193 137.009 436.231 135.728 435.667 134.836C435.164 134.041 434.745 133.053 434.737 132.64C434.71 131.315 437.435 131.84 438.738 133.411C439.433 134.247 441.949 135.422 444.331 136.022C450.011 137.452 451.319 139.039 448.74 141.373C447.289 142.686 445.82 143.006 443.192 142.579C440.594 142.157 439.465 142.394 439.062 143.445C438.19 145.718 435.821 145.135 435.155 142.483ZM429.414 124.104C428.525 123.121 427.144 120.752 426.345 118.84C425.546 116.927 423.278 113.017 421.306 110.15C419.335 107.284 417.721 104.674 417.721 104.35C417.721 103.448 425.567 108.062 427.313 109.992C428.606 111.42 428.647 112.037 427.564 113.771C426.405 115.626 426.66 116.243 429.995 119.659C432.045 121.757 433.721 124.018 433.721 124.682C433.721 126.475 431.262 126.145 429.414 124.104ZM411.722 99.1641C410.208 97.2391 409.944 96.3158 410.825 96.0222C412.071 95.6068 415.721 99.3185 415.721 101.001C415.721 102.723 413.843 101.86 411.722 99.1641Z" fill="#F97316"/>
</g>
<defs>
<clipPath id="clip0_1_100">
<rect width="504.742" height="373.761" fill="white"/>
</clipPath>
</defs>
</svg>
