<svg width="213" height="153" viewBox="0 0 213 153" fill="none" xmlns="http://www.w3.org/2000/svg">
<g clip-path="url(#clip0_1_251)">
<path d="M159.734 151.882C157.253 150.881 158.555 149.425 161.657 149.731C165.371 150.098 166.881 152.586 163.318 152.466C162.034 152.422 160.422 152.16 159.734 151.882ZM39.5863 143.904C38.2758 142.986 35.8294 141.954 34.1498 141.61C29.8346 140.728 28.8792 136.5 30.9435 127.424C31.8078 123.624 32.2575 119.49 31.9429 118.236C31.5537 116.685 32.0254 115.365 33.4197 114.103C35.2815 112.418 36.1028 112.354 42.419 113.397C51.7616 114.94 57.044 114.842 58.7918 113.094C60.9726 110.914 61.856 103.098 60.2939 99.8054C59.5736 98.287 57.2968 96.2201 55.2343 95.2123C50.6631 92.9787 50.0356 90.005 54.3161 90.8611C56.1864 91.2351 58.2442 90.7608 60.3762 89.4642C62.1518 88.3844 64.0142 87.7542 64.515 88.0637C65.9237 88.9343 71.2799 85.7863 73.0899 83.0239C73.9833 81.6603 75.3003 80.5447 76.0165 80.5447C76.7327 80.5447 80.3382 78.0697 84.0287 75.0447C89.1067 70.8823 91.5291 69.5447 93.989 69.5447C98.7036 69.5447 100.074 67.4549 98.5947 62.5189C97.0246 57.2785 98.7433 53.6311 102.234 54.7947C102.647 54.9322 102.984 56.1697 102.984 57.5447C102.984 60.1419 103.34 60.2267 108.834 58.9406C111.26 58.3725 111.63 58.5534 111.325 60.1591C111.065 61.5336 109.953 62.1288 107.226 62.3551C102.997 62.7058 102.628 63.4598 105.439 66.0034C107.067 67.4767 107.917 67.5896 110.528 66.6792C112.974 65.8267 114.274 65.9019 116.438 67.0209C118.925 68.3071 119.765 68.2458 124.546 66.4294C128.816 64.8066 130.364 64.6247 132.319 65.5154C134.379 66.4541 135.369 66.2248 138.66 64.0469C142.205 61.7013 142.504 61.1677 141.946 58.1913C141.165 54.0302 143.399 51.7375 146.764 53.246C147.985 53.7935 149.547 54.0471 150.234 53.8097C151.793 53.2713 151.863 50.323 150.351 48.8119C148.634 47.0946 150.114 44.5447 152.828 44.5447C159.266 44.5447 161.277 45.6174 161.934 49.4015C163.178 56.5735 164.453 58.4628 168.854 59.6546C171.126 60.2698 173.521 60.9225 174.176 61.1052C176.177 61.6627 178.805 66.5099 178.927 69.8688C179.094 74.4713 180.099 75.5719 183.508 74.89C185.904 74.4107 186.972 74.8555 189.232 77.2742C192.834 81.131 196.66 83.0435 203.655 84.485C207.845 85.3484 209.756 86.3105 210.974 88.1693C212.423 90.3811 212.449 90.9497 211.187 92.8754C210.398 94.0801 207.104 96.136 203.868 97.444C200.632 98.7521 197.309 100.462 196.484 101.245C195.155 102.505 195.193 102.822 196.818 104.028C198.564 105.323 198.531 105.468 196.135 107.038C193.135 109.004 189.484 107.656 189.484 104.582C189.484 103.541 188.314 101.769 186.883 100.644C184.516 98.7821 184.032 98.7274 181.501 100.036C175.507 103.136 169.198 116.427 171.413 121.288C173.109 125.01 171.862 125.865 165.782 125.15C161.928 124.697 159.57 124.929 157.667 125.95C156.191 126.741 154.197 127.634 153.234 127.935C151.117 128.597 151.018 131.344 153.016 133.986C154.869 136.436 154.892 139.605 153.075 142.09C151.691 143.982 151.626 143.983 149.575 142.126C147.092 139.879 146.891 137.986 149.048 137.159C151.105 136.369 149.919 134.545 147.348 134.545C144.383 134.545 139.484 129.216 139.484 125.99C139.484 121.691 135.846 116.738 131.883 115.644C129.972 115.117 126.834 113.303 124.911 111.615C122.988 109.926 120.781 108.545 120.006 108.545C119.231 108.545 118.01 107.73 117.291 106.733C115.218 103.86 113.764 103.408 112.065 105.107C111.196 105.976 110.484 107.09 110.484 107.582C110.484 109.552 123.76 121.653 128.706 124.19C133.622 126.713 133.813 126.943 131.484 127.542C129.473 128.06 129.026 128.746 129.199 131.056C129.432 134.177 127.829 136.876 126.303 135.933C125.778 135.608 125.567 134.772 125.835 134.074C126.703 131.812 122.67 126.68 118.274 124.451C111.173 120.852 105.701 116.482 104.42 113.389C102.374 108.451 100.26 108.09 94.0188 111.612C89.4151 114.21 87.8553 114.614 84.5694 114.059C79.7871 113.251 76.485 114.791 76.4823 117.83C76.481 119.37 74.9327 121.1 71.3969 123.509C66.26 127.011 63.4843 130.828 63.4843 134.391C63.4843 136.687 57.4132 142.314 54.2159 142.982C52.9885 143.238 50.4093 143.626 48.4843 143.844C46.5593 144.062 44.3058 144.54 43.4767 144.906C42.6475 145.273 40.8969 144.822 39.5863 143.904ZM117.734 141.324C113.816 139.435 115.488 137.006 119.938 138.123C121.544 138.525 122.484 139.46 122.484 140.653C122.484 142.755 121.105 142.95 117.734 141.324ZM97.4689 130.004C96.2825 126.884 97.7077 124.309 100.111 125.232C101.905 125.92 101.602 131.688 99.7404 132.299C99.0563 132.524 98.0341 131.491 97.4689 130.004ZM74.4843 131.104C74.4843 130.861 74.9343 130.385 75.4843 130.045C76.0343 129.705 76.4843 129.903 76.4843 130.486C76.4843 131.068 76.0343 131.545 75.4843 131.545C74.9343 131.545 74.4843 131.346 74.4843 131.104ZM98.7134 119.357C99.3315 117.503 101.484 117.195 101.484 118.961C101.484 119.832 100.772 120.545 99.9009 120.545C99.0301 120.545 98.4957 120.01 98.7134 119.357ZM54.4843 81.3515C54.4843 80.9078 54.9343 80.5447 55.4843 80.5447C57.3179 80.5447 56.5137 78.3652 54.4843 77.8345C51.5442 77.0656 52.0329 73.8442 55.5811 70.6035C58.2753 68.1426 58.5274 67.4938 57.5203 65.612C56.8836 64.4223 55.3239 63.054 54.0543 62.5713C51.1304 61.4597 50.0984 56.8707 52.0805 53.7947C53.8348 51.0723 55.6236 50.9362 57.8156 53.3584C59.1105 54.7892 59.1985 55.4305 58.2324 56.3966C57.2663 57.3626 57.666 58.1362 60.1257 60.0612C61.8406 61.4033 64.2069 64.5507 65.3843 67.0555C66.6818 69.8157 68.5018 71.9811 70.0047 72.5525C72.45 73.4822 73.4528 75.5447 71.4595 75.5447C70.8959 75.5447 70.033 76.6013 69.542 77.8928C68.7774 79.904 67.6331 80.3784 61.5668 81.1996C57.6714 81.7269 54.4843 81.7953 54.4843 81.3515ZM33.493 77.0552C32.6646 76.057 32.6428 75.1169 33.4149 73.6744C34.003 72.5754 34.4843 70.5618 34.4843 69.1997C34.4843 67.2696 35.4365 66.2621 38.8 64.6339C44.2092 62.0154 47.4843 61.9063 47.4843 64.3447C47.4843 65.3347 47.0689 66.5722 46.5612 67.0947C46.0535 67.6172 45.491 69.3493 45.3112 70.9439C44.9774 73.9042 44.6919 74.1459 38.3124 76.87C35.1982 78.1997 34.4662 78.2279 33.493 77.0552ZM113.365 59.2486C112.475 58.5707 111.45 56.6636 111.087 55.0106C110.724 53.3575 109.356 50.664 108.048 49.0249C105.757 46.1551 105.546 46.0952 102.327 47.4091C96.1695 49.9223 94.137 49.879 91.216 47.1719C89.6633 45.7329 88.4843 43.5759 88.4843 42.1742C88.4843 40.818 88.2177 39.0135 87.8918 38.1644C87.0991 36.0987 91.8084 31.8253 96.2198 30.6073C100.851 29.3287 110.337 22.7028 112.031 19.564C112.779 18.1784 115.844 14.6733 118.842 11.7748C124.158 6.63633 126.101 5.65937 140.169 1.05064C144.191 -0.266913 160.895 -0.37823 162.177 0.90397C162.786 1.51299 162.15 3.13509 160.283 5.73617C159.3 7.10506 159.394 7.78757 160.776 9.31492C161.716 10.3529 162.484 12.6027 162.484 14.3144C162.484 16.0262 162.934 17.7048 163.484 18.0447C164.034 18.3846 164.484 19.9234 164.484 21.4642C164.484 23.005 165.609 25.9234 166.984 27.9496C168.359 29.9758 169.484 31.9794 169.484 32.402C169.484 34.8555 163.185 38.8109 157.049 40.2105C149.64 41.9005 147.075 41.5837 143.147 38.4939C139.657 35.7491 139.788 33.7532 143.806 28.4385C148.053 22.82 148.639 21.1386 147.089 19.0194C145.311 16.5875 142.423 17.7933 138.584 22.5702C136.822 24.7631 133.692 27.4184 131.629 28.4708C124.879 31.9145 124.234 37.1849 130.092 41.0236L132.782 42.7858L129.215 46.1505C127.254 48.001 125.133 51.0778 124.503 52.9877C123.809 55.0921 122.055 57.2648 120.053 58.5025C116.244 60.8561 115.575 60.9308 113.365 59.2486ZM5.98426 26.5447C4.33426 25.4598 2.23405 24.8095 1.31714 25.0995C0.0543334 25.499 -0.225892 25.1523 0.161748 23.67C0.756688 21.3949 9.54298 18.1112 12.5131 19.0539C13.5487 19.3826 16.1495 19.1261 18.2926 18.484C22.4818 17.2289 26.4843 18.3919 26.4843 20.8643C26.4843 22.5474 21.975 25.0909 16.4843 26.5049C14.0093 27.1423 11.3093 27.8558 10.4843 28.0905C9.65926 28.3252 7.63426 27.6296 5.98426 26.5447Z" fill="#EF4444"/>
</g>
<defs>
<clipPath id="clip0_1_251">
<rect width="212.099" height="152.47" fill="white"/>
</clipPath>
</defs>
</svg>
