<svg width="321" height="246" viewBox="0 0 321 246" fill="none" xmlns="http://www.w3.org/2000/svg">
<g clip-path="url(#clip0_1_196)">
<path d="M169.205 244.999C166.703 242.497 170.604 239.622 184.646 233.62C189.683 231.468 196.218 227.883 199.168 225.656C206.048 220.461 207.154 220.08 208.43 222.463C209.609 224.666 208.238 226.313 203.036 228.943C201.385 229.778 199.178 231.407 198.131 232.564C197.085 233.72 195.4 234.666 194.386 234.666C193.373 234.666 190.855 236.182 188.791 238.034C186.727 239.886 183.144 242.361 180.828 243.534C176.763 245.593 170.578 246.373 169.205 244.999ZM99.1024 231.77C98.7977 231.277 98.8296 228.821 99.1734 226.313L99.7984 221.753L105.418 222.056C108.898 222.244 111 222.799 110.938 223.513C110.883 224.147 110.771 225.126 110.688 225.688C110.537 226.723 101.775 232.666 100.402 232.666C99.9918 232.666 99.4071 232.263 99.1024 231.77ZM215.886 220.834C216.798 219.827 217.44 217.743 217.312 216.202C217.149 214.228 217.77 212.925 219.42 211.784C223.044 209.278 226.192 206.198 226.754 204.609C227.161 203.459 227.761 203.622 229.716 205.416C231.064 206.654 232.926 207.666 233.853 207.666C236.691 207.666 235.727 210.517 232.288 212.293C230.501 213.216 226.635 215.927 223.697 218.318C220.759 220.71 217.427 222.666 216.292 222.666C214.355 222.666 214.33 222.554 215.886 220.834ZM108.249 209.948C106.867 208.566 105.995 208.432 103.785 209.264C100.397 210.54 95.7413 209.435 92.7476 206.646C90.9479 204.97 90.7237 204.189 91.5817 202.585C92.6527 200.584 91.3652 194.86 89.1722 191.874C88.5551 191.033 88.6281 190.177 89.3808 189.424C90.7809 188.024 90.9076 185.666 89.5828 185.666C89.0573 185.666 86.9695 186.791 84.9433 188.166C82.9171 189.541 80.8813 190.666 80.4192 190.666C79.9571 190.666 78.7007 188.979 77.6271 186.916C76.5535 184.854 74.0974 182.115 72.169 180.83C69.0246 178.735 67.9602 178.564 61.8507 179.172C52.8991 180.063 44.2627 182.27 38.6098 185.111C36.0402 186.403 31.0261 187.726 27.1593 188.131C23.3758 188.528 17.3584 189.953 13.7873 191.297C8.32626 193.352 6.77183 193.568 4.00492 192.655C0.293263 191.43 -1.24839 188.905 1.15272 187.984C2.02203 187.65 3.60571 185.342 4.67202 182.855C6.37129 178.89 6.47031 177.655 5.47363 172.854C4.7818 169.521 4.62089 164.79 5.06275 160.771C5.4622 157.138 5.86993 151.128 5.96881 147.416C6.09986 142.495 6.67573 139.96 8.09352 138.062C10.3337 135.065 29.0086 126.666 33.4347 126.666C37.4071 126.666 42.6398 122.811 45.3634 117.877C47.1159 114.703 48.2931 113.666 50.1448 113.666C51.5416 113.666 52.8848 112.927 53.2586 111.953C54.3865 109.014 62.745 100.79 65.6249 99.7859C67.8843 98.9983 68.9507 99.257 71.6487 101.248C75.6724 104.216 78.5384 104.405 78.5384 101.701C78.5384 99.3249 84.1717 92.6662 86.1819 92.6662C86.9718 92.6662 89.4286 91.7425 91.6415 90.6136C95.4853 88.6526 95.9076 88.6316 101.102 90.1415C104.092 91.0108 106.538 92.2189 106.538 92.8261C106.538 93.4333 105.622 95.4134 104.501 97.2262C101.377 102.282 102.588 104.759 111.045 110.606C115.071 113.389 119.041 115.666 119.867 115.666C120.692 115.666 122.981 113.468 124.953 110.782C127.565 107.224 128.55 104.849 128.582 102.032C128.642 96.7469 131.682 88.1662 133.494 88.1662C134.357 88.1662 135.474 89.9731 136.235 92.6011C136.941 95.0403 138.622 98.1903 139.971 99.6011C143.121 102.896 144.919 110.629 143.624 115.318C142.744 118.507 142.95 119.116 146.085 122.586C147.967 124.669 150.931 129.477 152.673 133.27C154.415 137.063 157.576 142.464 159.699 145.272L163.559 150.377L162.461 158.265C161.11 167.979 156.572 176.656 149.758 182.551C144.465 187.129 143.342 188.219 135.493 196.392C132.443 199.568 129.229 203.209 128.352 204.483C127.149 206.229 125.661 206.861 122.308 207.051C119.676 207.199 116.607 208.193 114.794 209.484C111.1 212.115 110.461 212.16 108.249 209.948ZM226.178 198.972C224.983 197.777 225.532 195.666 227.038 195.666C227.863 195.666 228.538 196.315 228.538 197.107C228.538 198.778 227.111 199.906 226.178 198.972ZM217.131 131.558C212.758 126.694 211.375 123.666 213.526 123.666C214.069 123.666 215.586 125.354 216.896 127.416C218.207 129.479 220.237 132.023 221.409 133.071C222.58 134.119 223.538 135.356 223.538 135.821C223.538 137.755 221.458 136.37 217.131 131.558ZM272.081 116.735C271.765 116.223 271.985 115.508 272.57 115.147C274.05 114.232 276.802 115.431 276.043 116.659C275.261 117.924 272.844 117.97 272.081 116.735ZM278.538 111.666C278.538 111.116 278.988 110.666 279.538 110.666C280.088 110.666 280.538 111.116 280.538 111.666C280.538 112.216 280.088 112.666 279.538 112.666C278.988 112.666 278.538 112.216 278.538 111.666ZM318.038 97.6662C318.378 97.1162 319.106 96.6662 319.656 96.6662C320.206 96.6662 320.378 97.1162 320.038 97.6662C319.699 98.2162 318.97 98.6662 318.42 98.6662C317.87 98.6662 317.699 98.2162 318.038 97.6662ZM160.326 82.4033C157.629 81.123 154.634 78.6923 153.323 76.7203C150.517 72.5007 145.305 69.288 142.638 70.1345C141.563 70.4757 139.754 72.3308 138.617 74.257C136.683 77.5359 136.312 77.7166 132.795 77.0916C130.729 76.7244 127.863 75.3292 126.427 73.9911C124.492 72.1878 123.162 71.7226 121.287 72.1933C118.29 72.9454 116.936 71.4109 119.049 69.6571C120.853 68.1606 120.921 66.6003 119.337 63.123C117.986 60.159 104.262 52.6662 100.183 52.6662C97.0831 52.6662 94.7461 50.0586 96.3808 48.4238C98.2969 46.5078 97.7043 44.9775 94.5384 43.6662C90.8265 42.1287 90.6621 39.9242 94.1932 39.038C97.8279 38.1257 99.7706 39.6143 101.538 44.6662C103.109 49.1556 106.413 52.2159 107.24 49.948C107.484 49.2779 110.072 47.3636 112.99 45.6938L118.296 42.6579L124.667 45.5318C128.171 47.1124 133.152 49.1673 135.735 50.0983C141.742 52.263 153.643 60.0579 155.101 62.7829C155.717 63.934 156.03 65.8755 155.796 67.0973C155.243 69.9946 160.32 77.4286 164.981 80.5451C171.537 84.9287 168.337 86.2062 160.326 82.4033ZM57.1591 79.2123C57.813 77.5084 64.004 73.6662 66.0956 73.6662C68.75 73.6662 67.5767 75.7523 64.1068 77.2021C62.2194 77.9907 60.3929 79.0927 60.0478 79.651C59.0615 81.2469 56.5262 80.8618 57.1591 79.2123ZM29.2323 76.0267C28.0989 74.8933 29.5882 73.6662 32.0975 73.6662C34.8419 73.6662 35.3688 75.1336 32.9566 76.0592C30.9391 76.8334 30.0311 76.8255 29.2323 76.0267ZM44.0384 75.6662C42.976 73.9471 44.6089 72.5548 46.8726 73.2497C49.8959 74.1779 50.201 74.6355 48.5095 75.7053C46.5812 76.9248 44.8067 76.9093 44.0384 75.6662ZM185.538 66.1072C185.538 65.2497 185.988 64.8263 186.538 65.1662C187.088 65.5061 187.538 66.2077 187.538 66.7252C187.538 67.2427 187.088 67.6662 186.538 67.6662C185.988 67.6662 185.538 66.9646 185.538 66.1072ZM165.66 64.7627C163.918 63.6588 165.077 61.6662 167.463 61.6662C168.456 61.6662 170.413 60.7662 171.811 59.6662C174.807 57.3097 175.538 57.1849 175.538 59.0302C175.538 59.7804 173.827 61.5804 171.735 63.0302C167.467 65.9878 167.555 65.9627 165.66 64.7627ZM40.7304 59.7852C39.8985 59.2708 39.655 58.0498 40.0615 56.4304C40.4236 54.9877 40.2321 53.5949 39.6195 53.2163C38.0922 52.2723 38.3341 48.5205 40.0702 46.2251C40.8778 45.1574 41.5384 43.0055 41.5384 41.4429C41.5384 37.9911 43.6806 32.6206 45.738 30.9145C46.8698 29.976 48.5368 29.9073 52.3999 30.6399C56.0385 31.33 58.2859 31.2827 60.0496 30.4792C63.3083 28.9944 64.3402 30.1228 62.044 32.6601C60.0171 34.8997 57.4212 35.209 54.3674 33.5746C51.4944 32.0371 45.7871 33.333 44.453 35.8259C42.8542 38.8133 45.4722 41.1468 50.0748 40.8368L53.6296 40.5974L52.0189 43.0556C50.5522 45.2941 50.5481 45.7843 51.9734 48.5403C52.8341 50.2049 53.5384 52.5222 53.5384 53.6899C53.5384 56.9278 50.3019 55.763 48.608 51.9154C46.1418 46.3137 41.9108 48.9909 43.6493 55.0529C44.6359 58.4929 42.9807 61.1765 40.7304 59.7852ZM78.7884 50.9995C76.6556 50.1464 77.4158 48.5097 79.7884 48.8466C81.0259 49.0224 81.9259 49.6162 81.7884 50.1662C81.4846 51.3814 80.4569 51.6669 78.7884 50.9995ZM75.0377 31.5095C75.8819 26.3202 77.2446 24.4119 77.2891 28.3567C77.3066 29.9019 77.4823 32.0489 77.6796 33.1279C77.9147 34.4132 77.3993 35.2211 76.1848 35.4712C74.5246 35.8129 74.4049 35.3995 75.0377 31.5095ZM100.538 1.22521C100.538 0.982669 100.988 0.506108 101.538 0.166188C102.088 -0.173732 102.538 0.0247074 102.538 0.607167C102.538 1.18963 102.088 1.66619 101.538 1.66619C100.988 1.66619 100.538 1.46775 100.538 1.22521Z" fill="#EC4899"/>
</g>
<defs>
<clipPath id="clip0_1_196">
<rect width="320.213" height="245.688" fill="white"/>
</clipPath>
</defs>
</svg>
